<svg xmlns="http://www.w3.org/2000/svg" viewBox="0 0 483.537 483.537" width="512" height="512"><path d="M479.963 425.047L269.051 29.854a30.358 30.358 0 0 0-26.782-16.081h-.03a30.366 30.366 0 0 0-26.782 16.051L3.603 425.016c-5.046 9.485-4.773 20.854.699 29.974 5.502 9.15 15.413 14.774 26.083 14.774H453.12a30.371 30.371 0 0 0 26.083-14.774c5.502-9.15 5.776-20.519.76-29.943zm-237.724-16.082c-16.781 0-30.399-13.619-30.399-30.399s13.619-30.399 30.399-30.399c16.75 0 30.399 13.619 30.399 30.399s-13.618 30.399-30.399 30.399zm30.43-121.111c0 16.811-13.649 30.399-30.399 30.399-16.781 0-30.399-13.589-30.399-30.399V166.256c0-16.781 13.619-30.399 30.399-30.399 16.75 0 30.399 13.619 30.399 30.399v121.598z" fill="#FFF"/></svg>